Coordinates
version=1
nRows=17
nColumns=38
inDegrees=no

Units are S.I. units (second, meters, Newtons, ...)
If the header above contains a line with 'inDegrees', this indicates whether rotational values are in degrees (yes) or radians (no).

endheader
time	pelvis_tilt	pelvis_list	pelvis_rotation	pelvis_tx	pelvis_ty	pelvis_tz	hip_flexion_r	hip_adduction_r	hip_rotation_r	knee_angle_r	ankle_angle_r	subtalar_angle_r	mtp_angle_r	hip_flexion_l	hip_adduction_l	hip_rotation_l	knee_angle_l	ankle_angle_l	subtalar_angle_l	mtp_angle_l	lumbar_extension	lumbar_bending	lumbar_rotation	arm_flex_r	arm_add_r	arm_rot_r	elbow_flex_r	pro_sup_r	wrist_flex_r	wrist_dev_r	arm_flex_l	arm_add_l	arm_rot_l	elbow_flex_l	pro_sup_l	wrist_flex_l	wrist_dev_l
1.68	1.91383	1.42831	-0.289758	0.925775	0.996226	1.01311	0.108248	0.138182	-0.336333	0.306945	0.0324997	0	0	0.270643	-0.217505	0.0703174	1.19274	0.00295882	0	0	-0.256191	0.169025	0.0609988	-0.0558141	-0.194395	-0.00487897	0.377667	1.4443	0	0	-0.00140206	-0.268657	0.428844	0.402349	1.25004	0	0
1.69	1.94104	1.43093	-0.320992	0.927178	1.00363	1.01392	0.0937368	0.137773	-0.329998	0.301542	0.0373275	0	0	0.284118	-0.210936	0.0703247	1.18591	0.00817181	0	0	-0.259713	0.16436	0.0640157	-0.0515375	-0.194837	-0.00188964	0.376935	1.4441	0	0	0.000747075	-0.26944	0.430723	0.404031	1.24739	0	0
1.7	1.97088	1.43356	-0.354693	0.928513	1.011	1.01468	0.0788782	0.136877	-0.324078	0.295644	0.0420006	0	0	0.296511	-0.204488	0.0689282	1.17542	0.0115839	0	0	-0.263394	0.159642	0.0668799	-0.0474127	-0.195125	0.00041318	0.376528	1.44365	0	0	0.00318365	-0.269774	0.432321	0.405056	1.24388	0	0
1.71	2.00536	1.43568	-0.392273	0.929757	1.01839	1.01544	0.0629115	0.136109	-0.31866	0.28866	0.0466386	0	0	0.307454	-0.198265	0.0676225	1.16134	0.0140424	0	0	-0.267488	0.155199	0.0691238	-0.0432702	-0.194991	0.00175522	0.37606	1.44317	0	0	0.00616333	-0.269825	0.434048	0.404517	1.23977	0	0
1.72	2.04241	1.43764	-0.431784	0.930963	1.02571	1.01614	0.0465121	0.135232	-0.313198	0.280979	0.0509476	0	0	0.317579	-0.19194	0.0660813	1.14406	0.0170978	0	0	-0.271679	0.15062	0.0708479	-0.0388978	-0.194585	0.00307249	0.37511	1.44311	0	0	0.00936048	-0.269914	0.434929	0.403894	1.23557	0	0
1.73	2.0836	1.439	-0.475468	0.932137	1.03298	1.01682	0.0296199	0.134264	-0.308447	0.273347	0.0548331	0	0	0.326022	-0.186917	0.0625235	1.1237	0.0212317	0	0	-0.276798	0.146094	0.0729793	-0.0337973	-0.194078	0.00430875	0.373145	1.44347	0	0	0.0134621	-0.269852	0.435831	0.402715	1.23211	0	0
1.74	2.12814	1.43987	-0.522931	0.933266	1.04014	1.0175	0.0126455	0.132934	-0.303642	0.266197	0.0584661	0	0	0.332932	-0.182971	0.0566067	1.10046	0.025798	0	0	-0.282908	0.141632	0.0758726	-0.0281381	-0.193742	0.0053531	0.370587	1.44395	0	0	0.018602	-0.269361	0.437049	0.400298	1.22952	0	0
1.75	2.17193	1.44073	-0.569688	0.934311	1.04719	1.01814	-0.00386614	0.131224	-0.29881	0.259056	0.0627702	0	0	0.339166	-0.179536	0.0487785	1.07435	0.0305648	0	0	-0.28909	0.137125	0.0789261	-0.0221565	-0.193551	0.00652259	0.367797	1.44418	0	0	0.0245755	-0.268537	0.438584	0.396728	1.22728	0	0
1.76	2.21523	1.44095	-0.615517	0.935333	1.05437	1.01868	-0.0208803	0.129884	-0.294617	0.251432	0.067416	0	0	0.344324	-0.177274	0.0393077	1.04614	0.0347959	0	0	-0.295063	0.133048	0.081702	-0.0165996	-0.193282	0.00750891	0.365152	1.44438	0	0	0.0307455	-0.267709	0.440726	0.392188	1.22529	0	0
1.77	2.25812	1.44014	-0.660528	0.936292	1.06166	1.01916	-0.0383716	0.129012	-0.292066	0.244223	0.071856	0	0	0.347998	-0.176752	0.0274972	1.01596	0.0392787	0	0	-0.301274	0.129668	0.0844174	-0.0113995	-0.193086	0.00844454	0.362693	1.4449	0	0	0.0371401	-0.266914	0.443281	0.387422	1.22321	0	0
1.78	2.29789	1.43917	-0.70186	0.937195	1.06891	1.0196	-0.0552686	0.127979	-0.289852	0.23735	0.0770871	0	0	0.350354	-0.175349	0.0163043	0.982454	0.044268	0	0	-0.307388	0.126599	0.0868122	-0.00618365	-0.192854	0.00899921	0.360404	1.44556	0	0	0.0440099	-0.266112	0.446033	0.382795	1.22109	0	0
1.79	2.33654	1.43852	-0.74164	0.938027	1.07607	1.01996	-0.0711194	0.126234	-0.288804	0.231612	0.0840625	0	0	0.35206	-0.173254	0.00451176	0.946633	0.049177	0	0	-0.313224	0.123329	0.0885846	-0.00103586	-0.192443	0.00908254	0.358618	1.44626	0	0	0.0509502	-0.265487	0.448812	0.378122	1.21896	0	0
1.8	2.37287	1.4387	-0.778828	0.938798	1.0832	1.02015	-0.0854434	0.12383	-0.28774	0.226967	0.0898776	0	0	0.353963	-0.17044	-0.00751796	0.909541	0.0524957	0	0	-0.318116	0.119587	0.0898048	0.00402737	-0.191817	0.00851399	0.3568	1.44672	0	0	0.0575898	-0.265047	0.451399	0.374031	1.21651	0	0
1.81	2.40803	1.4393	-0.814327	0.939487	1.09039	1.02024	-0.0989331	0.121026	-0.287288	0.222997	0.0952446	0	0	0.35543	-0.166774	-0.0197359	0.87089	0.053995	0	0	-0.322579	0.115623	0.0911508	0.0093827	-0.191456	0.0107942	0.353045	1.44628	0	0	0.0644633	-0.264767	0.455038	0.369844	1.21432	0	0
1.82	2.43797	1.43965	-0.844568	0.940079	1.09763	1.02022	-0.112282	0.118897	-0.286218	0.218316	0.0995375	0	0	0.356659	-0.163542	-0.0326517	0.831591	0.0555188	0	0	-0.326487	0.112433	0.0920189	0.0144028	-0.191547	0.0143737	0.350411	1.44553	0	0	0.070407	-0.264552	0.458218	0.366492	1.21236	0	0
1.83	2.46197	1.44025	-0.869379	0.940677	1.10483	1.02008	-0.125088	0.1173	-0.283476	0.213085	0.10173	0	0	0.357983	-0.160919	-0.0473514	0.791369	0.0563683	0	0	-0.329601	0.109437	0.0927788	0.0188609	-0.191553	0.0176281	0.349446	1.44435	0	0	0.0753792	-0.264553	0.460161	0.364734	1.21053	0	0
1.84	2.48241	1.44091	-0.890171	0.941132	1.11209	1.01985	-0.137123	0.115688	-0.281894	0.208556	0.105978	0	0	0.358726	-0.157971	-0.0622468	0.749845	0.0563742	0	0	-0.332209	0.106927	0.0926646	0.0228617	-0.191447	0.0204046	0.349438	1.44291	0	0	0.079582	-0.264579	0.46118	0.363627	1.2087	0	0
